<svg width="88" height="48" viewBox="0 0 88 48" fill="none" xmlns="http://www.w3.org/2000/svg">
<path d="M44.0002 48.0002C43.4749 48.0008 42.9546 47.8975 42.4693 47.6964C41.984 47.4953 41.5432 47.2002 41.1722 46.8283L1.17225 6.82825C-0.39075 5.26525 -0.39075 2.73425 1.17225 1.17225C2.73525 -0.38975 5.26625 -0.39075 6.82825 1.17225L44.0002 38.3442L81.1722 1.17225C82.7352 -0.39075 85.2663 -0.39075 86.8283 1.17225C88.3903 2.73525 88.3913 5.26625 86.8283 6.82825L46.8283 46.8283C46.4573 47.2002 46.0165 47.4953 45.5312 47.6964C45.0459 47.8975 44.5256 48.0008 44.0002 48.0002Z" fill="white"/>
</svg>
